<?xml version="1.0" standalone="no"?>
<!DOCTYPE svg PUBLIC "-//W3C//DTD SVG 20010904//EN"
 "http://www.w3.org/TR/2001/REC-SVG-20010904/DTD/svg10.dtd">
<svg version="1.0" xmlns="http://www.w3.org/2000/svg"
 width="960.000000pt" height="960.000000pt" viewBox="0 0 960.000000 960.000000"
 preserveAspectRatio="xMidYMid meet">

<g transform="translate(0.000000,960.000000) scale(0.100000,-0.100000)"
fill="#000000" stroke="none">
<path d="M0 4800 l0 -4800 4800 0 4800 0 0 4800 0 4800 -4800 0 -4800 0 0
-4800z m3110 3360 c236 -37 416 -101 568 -203 169 -112 282 -232 389 -410 97
-161 162 -401 170 -632 l5 -141 87 18 c349 73 649 62 1007 -38 20 -5 21 -1 27
108 11 218 90 460 205 621 86 122 189 236 267 295 189 143 323 209 539 264
101 25 147 31 278 35 134 5 171 2 265 -17 145 -29 363 -108 363 -131 0 -5 5
-9 12 -9 6 0 34 -17 62 -38 28 -21 63 -46 79 -55 50 -32 231 -220 296 -307
156 -210 228 -385 277 -668 38 -223 -19 -579 -128 -797 -20 -39 -126 -205
-138 -215 -3 -3 -13 -17 -22 -31 -35 -56 -135 -153 -227 -222 -140 -105 -212
-140 -420 -202 -30 -9 -106 -23 -170 -32 -64 -8 -117 -16 -119 -18 -2 -2 10
-54 27 -117 57 -218 88 -410 98 -612 6 -122 8 -130 32 -150 84 -70 145 -147
181 -232 34 -78 70 -240 77 -342 5 -72 11 -104 25 -123 49 -67 78 -289 59
-449 -13 -104 -60 -302 -91 -379 -29 -75 -93 -206 -102 -209 -4 -2 -8 -8 -8
-14 0 -17 -119 -188 -190 -273 -88 -105 -160 -179 -240 -246 -36 -30 -67 -56
-70 -59 -3 -3 -44 -33 -91 -67 -142 -102 -249 -164 -414 -238 -22 -10 -71 -28
-109 -40 -56 -18 -71 -28 -81 -51 -7 -16 -26 -45 -44 -64 -17 -19 -31 -38 -31
-42 0 -11 -111 -93 -170 -125 -61 -34 -183 -68 -275 -78 -123 -13 -353 30
-540 100 -242 92 -501 262 -585 384 -22 34 -42 61 -45 61 -2 0 -40 -25 -84
-55 -103 -71 -163 -98 -292 -132 -92 -24 -122 -27 -269 -28 -149 0 -175 3
-273 28 -137 36 -212 70 -312 142 -82 59 -98 74 -144 135 -14 19 -34 44 -44
55 -32 35 -95 177 -117 265 -16 65 -28 90 -48 106 -98 78 -210 207 -332 383
-61 90 -75 117 -95 195 -47 184 -54 281 -50 681 3 204 9 415 14 470 5 56 5
112 0 130 -13 46 -10 143 6 214 18 74 83 174 143 218 20 15 39 31 42 35 12 16
109 52 180 67 73 16 74 17 82 51 4 19 21 98 37 175 17 77 41 175 55 218 15 43
26 84 26 91 0 9 -16 17 -42 21 -137 23 -314 77 -408 126 -43 22 -160 96 -170
108 -3 4 -23 19 -45 35 -111 82 -262 269 -329 408 -130 271 -173 603 -113 884
68 322 156 492 397 768 21 24 57 54 190 159 138 110 376 204 599 236 81 12
236 12 311 1z"/>
<path d="M2860 7910 c-131 -12 -289 -61 -393 -122 -26 -15 -52 -28 -57 -28 -6
0 -10 -4 -10 -10 0 -5 -5 -10 -11 -10 -31 0 -222 -173 -288 -260 -14 -19 -28
-37 -31 -40 -11 -11 -79 -128 -108 -185 -27 -54 -50 -115 -80 -215 -40 -130
-53 -329 -31 -473 42 -281 178 -523 382 -682 126 -99 346 -185 522 -205 109
-13 271 -1 344 25 22 7 42 11 45 8 5 -5 -40 -100 -54 -113 -15 -15 -107 -215
-133 -290 -97 -278 -134 -538 -123 -854 8 -230 13 -271 32 -255 8 6 14 17 14
25 0 23 103 119 153 143 113 55 298 35 475 -51 46 -22 86 -37 89 -35 15 16
-111 146 -172 178 -47 25 -51 32 -85 144 -55 184 -78 409 -61 600 10 122 38
269 60 320 5 11 21 54 36 95 14 41 41 102 60 135 19 33 43 76 54 95 77 136
272 310 446 397 127 64 188 78 330 78 125 0 133 -1 196 -31 125 -59 187 -126
226 -244 16 -50 23 -61 28 -45 16 46 62 133 94 180 40 56 120 135 138 135 6 0
13 4 15 8 2 4 28 19 58 32 81 35 210 39 315 11 88 -24 206 -81 287 -137 82
-58 250 -231 303 -312 57 -89 107 -196 130 -277 38 -137 30 -587 -16 -815 -35
-178 -42 -193 -113 -250 -42 -32 -72 -66 -86 -95 -24 -49 -20 -71 9 -56 58 32
221 77 327 92 95 13 197 -1 272 -37 77 -38 150 -136 169 -226 4 -22 -3 -38
-38 -80 -24 -29 -48 -56 -53 -60 -12 -8 11 -38 28 -38 19 0 72 -60 100 -113
37 -71 49 -146 43 -272 -8 -166 -62 -315 -175 -482 -68 -101 -202 -236 -218
-220 -2 2 17 42 42 88 141 253 239 489 249 599 7 72 -14 146 -61 208 -29 38
-92 72 -131 72 -75 -1 -179 -82 -261 -204 -26 -39 -50 -73 -53 -76 -3 -3 -27
-54 -53 -115 -27 -60 -66 -148 -88 -195 -22 -47 -49 -105 -59 -130 -10 -25
-36 -81 -57 -125 -32 -66 -40 -76 -46 -59 -4 12 -6 26 -5 30 1 5 1 24 0 43
l-1 34 -79 -7 c-171 -14 -406 -83 -566 -165 -226 -116 -360 -269 -410 -466
-14 -55 -16 -94 -12 -182 5 -95 4 -113 -8 -113 -36 0 -81 73 -88 141 -5 48
-13 51 -72 23 -134 -63 -184 -199 -114 -310 40 -62 74 -93 178 -162 120 -79
261 -147 403 -193 107 -35 139 -41 245 -46 171 -8 268 22 356 110 l42 42 -95
7 c-121 9 -241 42 -382 105 -64 28 -89 58 -35 41 135 -42 277 -55 422 -38 91
10 230 40 280 59 11 5 58 23 105 42 47 18 103 43 125 55 125 67 163 89 191
111 17 12 36 23 42 23 7 0 12 3 12 8 0 4 17 18 37 32 120 80 324 283 403 400
13 19 27 37 30 40 14 12 72 112 115 198 76 153 122 321 125 462 4 126 1 190
-8 190 -4 0 -13 -26 -21 -58 -7 -31 -36 -113 -63 -182 -28 -69 -55 -137 -61
-152 -11 -27 -27 -38 -27 -18 0 5 9 47 19 92 51 223 66 347 66 548 -1 187 -2
198 -28 275 -16 44 -32 82 -36 85 -4 3 -20 23 -36 44 -29 39 -129 96 -167 96
-17 0 -18 16 -18 193 0 438 -95 819 -286 1144 -22 37 -14 52 18 31 13 -8 66
-26 118 -39 81 -21 119 -24 260 -24 173 0 205 5 335 53 367 135 624 492 665
923 28 289 -71 591 -273 834 -149 180 -331 313 -502 368 -291 95 -636 39 -913
-148 -95 -64 -224 -193 -284 -283 -190 -290 -225 -593 -108 -941 12 -35 19
-65 16 -68 -3 -3 -33 8 -68 25 -226 108 -424 172 -633 203 -178 26 -484 9
-675 -37 -98 -24 -378 -124 -406 -145 -17 -13 -25 1 -13 23 46 85 89 294 89
428 0 360 -150 687 -398 868 -206 149 -481 225 -732 202z"/>
<path d="M3869 5332 c-9 -4 -30 -19 -48 -34 -28 -24 -34 -39 -52 -130 -11 -57
-26 -131 -33 -165 -7 -34 -9 -66 -5 -70 5 -5 32 -6 61 -3 l53 5 23 120 c29
152 34 170 52 170 19 0 16 -42 -10 -183 -11 -57 -20 -105 -20 -108 0 -3 28 -4
62 -2 51 3 62 6 64 22 1 10 7 39 12 65 6 25 16 79 23 119 12 72 33 108 48 84
7 -11 -34 -260 -44 -270 -15 -15 20 -27 68 -24 l56 4 6 41 c4 23 15 86 26 141
26 134 25 171 -6 201 -34 35 -99 34 -151 -1 -32 -22 -39 -24 -48 -12 -25 34
-94 48 -137 30z"/>
<path d="M4838 5318 c-42 -24 -62 -64 -77 -155 -6 -32 -17 -89 -25 -128 -24
-108 -25 -105 44 -105 33 0 60 2 60 4 0 3 9 49 19 103 10 54 22 117 26 140 7
46 20 62 37 45 12 -12 -2 -116 -29 -226 -12 -49 -12 -60 -1 -67 7 -5 19 -7 26
-4 8 3 30 5 51 5 l37 0 24 136 c24 137 37 173 59 160 13 -8 12 -16 -21 -183
-10 -57 -17 -107 -14 -112 6 -8 104 -7 113 2 9 10 52 264 52 312 0 73 -16 90
-89 90 -45 0 -65 -5 -89 -22 l-30 -23 -25 25 c-32 32 -95 34 -148 3z"/>
<path d="M4230 5090 c-11 -7 -12 -12 -3 -21 13 -13 33 -4 33 17 0 16 -9 18
-30 4z"/>
<path d="M4419 5085 c-1 -3 -2 -8 -3 -12 -2 -5 -6 -30 -10 -58 -4 -27 -10 -58
-13 -67 -3 -13 1 -18 15 -18 20 0 33 34 47 123 5 33 3 37 -15 37 -11 0 -21 -2
-21 -5z"/>
<path d="M4310 5042 c-22 -8 -49 -45 -50 -68 0 -47 60 -61 106 -25 29 23 20
33 -28 28 -15 -1 -28 3 -30 8 -2 6 16 11 40 13 37 3 41 5 32 21 -10 19 -46 31
-70 23z"/>
<path d="M4546 5034 c-15 -14 -20 -36 -19 -72 1 -7 -4 -11 -11 -9 -16 5 -20
55 -5 73 9 11 8 14 -9 14 -28 0 -45 -34 -38 -75 7 -33 8 -34 57 -33 28 0 53
-2 56 -5 9 -10 -8 -27 -28 -27 -20 0 -26 -24 -9 -35 13 -8 67 21 79 43 15 30
32 125 23 134 -16 16 -41 -4 -44 -35 -2 -17 -9 -33 -17 -35 -11 -4 -12 3 -7
31 8 40 -5 55 -28 31z"/>
<path d="M5219 5043 c-11 -3 -18 -18 -22 -45 -7 -50 0 -68 23 -68 29 0 33 -19
6 -26 -28 -7 -42 -32 -22 -40 20 -8 70 20 84 48 16 32 31 128 21 130 -29 4
-34 0 -39 -31 -3 -19 -11 -36 -19 -39 -11 -4 -13 3 -8 31 6 39 2 46 -24 40z"/>
<path d="M4204 4990 c-11 -54 -10 -60 16 -60 12 0 19 11 24 38 9 59 7 72 -12
72 -14 0 -21 -12 -28 -50z"/>
<path d="M5342 5017 c-37 -40 -24 -87 25 -87 27 0 29 8 7 38 -13 20 -14 23 0
28 24 9 36 -5 29 -36 -5 -26 -2 -30 15 -30 16 0 23 8 27 34 11 56 0 76 -44 76
-26 0 -44 -7 -59 -23z"/>
<path d="M5483 5018 c-15 -32 -33 -78 -33 -83 0 -3 11 -5 25 -5 20 0 25 6 31
35 8 47 26 45 22 -2 -3 -36 0 -40 31 -34 10 1 22 78 14 97 -3 9 -20 14 -42 14
-29 0 -40 -5 -48 -22z"/>
<path d="M5611 5023 c-7 -8 -16 -35 -19 -58 -4 -40 -3 -43 16 -38 13 3 22 16
27 39 3 19 11 34 17 34 6 0 8 -12 4 -33 -7 -39 -2 -47 24 -40 12 3 20 16 22
36 2 17 9 32 16 35 10 3 12 -4 7 -31 -7 -37 2 -51 25 -37 8 5 14 27 14 57 l1
48 -70 2 c-52 1 -74 -2 -84 -14z"/>
<path d="M5807 5022 c-26 -28 -22 -77 7 -90 13 -6 27 -8 30 -5 11 11 6 41 -6
46 -10 3 -10 7 1 20 20 25 34 9 28 -29 -5 -30 -3 -34 17 -34 20 0 25 7 30 41
4 26 2 46 -5 55 -17 21 -83 18 -102 -4z"/>
<path d="M5953 5020 c-7 -10 -16 -38 -19 -61 -6 -38 -5 -42 10 -36 10 4 20 7
22 7 2 0 4 11 4 23 0 13 9 32 20 42 11 10 20 24 20 32 0 20 -44 16 -57 -7z"/>
<path d="M2515 4616 c-105 -49 -143 -134 -114 -252 l11 -44 118 0 c79 0 131
-5 160 -15 57 -20 63 -19 49 7 -7 12 -14 64 -17 114 -4 72 -1 99 12 124 8 18
14 36 11 40 -12 19 -99 50 -137 49 -24 0 -65 -11 -93 -23z"/>
<path d="M2468 4213 c-14 -10 -37 -32 -50 -48 l-23 -29 -3 -410 c-3 -563 3
-594 151 -791 122 -164 285 -314 440 -406 31 -18 57 -37 57 -41 0 -5 4 -8 10
-8 12 0 112 -61 108 -66 -2 -1 -59 8 -127 22 -68 13 -126 22 -129 20 -5 -6 18
-78 29 -90 5 -6 9 -16 9 -23 0 -21 65 -115 108 -157 187 -182 513 -237 786
-133 45 16 83 33 86 37 3 3 21 17 40 30 65 45 113 103 125 151 l6 24 -85 -3
c-80 -3 -126 7 -126 27 0 5 33 21 73 36 105 40 115 45 187 91 66 43 168 139
158 149 -7 7 -236 45 -276 45 -30 0 -35 5 -54 48 -70 160 -252 340 -408 402
-19 8 -37 17 -40 20 -3 3 -45 18 -95 32 -127 38 -246 51 -345 39 -90 -12 -100
-15 -100 -38 0 -24 -43 -94 -54 -90 -6 2 -9 13 -6 23 2 10 4 129 4 264 0 246
-15 512 -36 605 -11 55 -52 128 -99 179 -72 80 -259 132 -321 89z"/>
<path d="M4485 4056 c-145 -37 -245 -95 -306 -179 -64 -89 -22 -225 91 -294
84 -51 117 -65 207 -88 79 -21 119 -25 235 -25 173 0 270 20 397 83 149 75
213 211 147 316 -27 43 -103 111 -123 111 -7 0 -13 4 -13 9 0 5 -8 11 -17 14
-10 3 -43 15 -73 27 -144 55 -382 67 -545 26z"/>
<path d="M4053 3280 c-18 -11 -33 -24 -33 -30 0 -34 101 -151 163 -188 32 -19
32 -25 7 -121 -36 -135 -23 -226 40 -271 26 -19 40 -22 82 -17 27 4 61 12 76
20 51 26 307 170 387 218 44 26 137 68 206 93 139 50 279 113 279 124 -1 4
-11 20 -24 35 l-22 28 -85 -45 c-128 -68 -237 -96 -399 -103 -289 -12 -514 79
-630 255 l-15 22 -32 -20z"/>
</g>
</svg>
